# xmcd
#
# Track frame offsets: 
#        150
#        13353
#        29803
#        52499
#        69419
#        83428
#        102337
#        115842
#        131772
#        151246
#        163522
#        176029
#
# Disc length: 2589 seconds
#
# Revision: 0
# Processed by: cddbd v1.5.1PL0 Copyright (c) Steve Scherf et al.
# Submitted via: ExactAudioCopy v0.95a5
#
DISCID=a50a1b0c
DTITLE=JJ Cale - Closer To You
DYEAR=1994
DGENRE=Rock
TTITLE0=Long Way Home
TTITLE1=Sho-Biz Blues
TTITLE2=Slower Baby
TTITLE3=Devil's Nurse
TTITLE4=Like You Used To
TTITLE5=Borrowed Time
TTITLE6=Rose In The Garden
TTITLE7=Brown Dirt
TTITLE8=Hard Love
TTITLE9=Ain't Love Funny
TTITLE10=Closer To You
TTITLE11=Steve's Song
EXTD=
EXTT0=
EXTT1=
EXTT2=
EXTT3=
EXTT4=
EXTT5=
EXTT6=
EXTT7=
EXTT8=
EXTT9=
EXTT10=
EXTT11=
PLAYORDER=
